<svg id="instagram" xmlns="http://www.w3.org/2000/svg" width="23.001" height="23.001" viewBox="0 0 23.001 23.001">
  <g id="Сгруппировать_4" data-name="Сгруппировать 4">
    <g id="Сгруппировать_3" data-name="Сгруппировать 3">
      <path id="Контур_2" data-name="Контур 2" d="M16.319,0H6.681A6.689,6.689,0,0,0,0,6.681v9.638A6.689,6.689,0,0,0,6.681,23h9.638A6.689,6.689,0,0,0,23,16.319V6.681A6.689,6.689,0,0,0,16.319,0ZM21.2,16.319A4.89,4.89,0,0,1,16.319,21.2H6.681A4.89,4.89,0,0,1,1.8,16.319V6.681A4.89,4.89,0,0,1,6.681,1.8h9.638A4.89,4.89,0,0,1,21.2,6.681Z" fill="#303030"/>
    </g>
  </g>
  <g id="Сгруппировать_6" data-name="Сгруппировать 6" transform="translate(5.301 5.301)">
    <g id="Сгруппировать_5" data-name="Сгруппировать 5">
      <path id="Контур_3" data-name="Контур 3" d="M124.2,118a6.2,6.2,0,1,0,6.2,6.2A6.206,6.206,0,0,0,124.2,118Zm0,10.6a4.4,4.4,0,1,1,4.4-4.4A4.408,4.408,0,0,1,124.2,128.6Z" transform="translate(-118 -118)" fill="#303030"/>
    </g>
  </g>
  <g id="Сгруппировать_8" data-name="Сгруппировать 8" transform="translate(16.907 4.484)">
    <g id="Сгруппировать_7" data-name="Сгруппировать 7" transform="translate(0)">
      <ellipse id="Эллипс_1" data-name="Эллипс 1" cx="0.805" cy="0.805" rx="0.805" ry="0.805" fill="#303030"/>
    </g>
  </g>
</svg>
