<svg xmlns="http://www.w3.org/2000/svg" width="827.785" height="720.423" viewBox="0 0 827.785 720.423">
  <g id="Контур_4" data-name="Контур 4" transform="translate(1.176 0.901)" fill="none">
    <path d="M311.77-.9C515.01-.9,826.608,152.556,826.608,355.8S634.5,719.522,431.254,719.522,20.086,573.68.758,366.339,108.529-.9,311.77-.9Z" stroke="none"/>
    <path d="M 311.7695617675781 0.0992431640625 C 299.8811340332031 0.0992431640625 288.0228271484375 0.657470703125 276.5241088867188 1.75823974609375 C 265.1751098632813 2.84478759765625 253.8881225585938 4.48760986328125 242.9763793945313 6.64093017578125 C 232.1952514648438 8.76849365234375 221.5083618164063 11.4481201171875 211.2124633789063 14.60546875 C 201.027587890625 17.72882080078125 190.9696655273438 21.39794921875 181.318359375 25.51092529296875 C 171.7582397460938 29.58502197265625 162.3583374023438 34.19622802734375 153.3800048828125 39.21661376953125 C 144.4733276367188 44.19671630859375 135.7603759765625 49.70294189453125 127.483154296875 55.582275390625 C 111.0458984375 67.257568359375 95.79656982421875 80.76702880859375 82.15869140625 95.7353515625 C 67.13348388671875 112.2265014648438 53.8656005859375 130.6992797851563 42.72369384765625 150.6405639648438 C 31.5584716796875 170.6237182617188 22.41156005859375 192.2904663085938 15.53704833984375 215.0390319824219 C 8.58935546875 238.0296020507813 3.886474609375 262.3802490234375 1.55889892578125 287.4147033691406 C 0.3824462890625 300.0689086914063 -0.20111083984375 313.0909118652344 -0.1756591796875 326.1188049316406 C -0.14984130859375 339.2903747558594 0.4991455078125 352.791259765625 1.75347900390625 366.2464904785156 C 2.941162109375 378.9863586425781 4.88232421875 391.7784729003906 7.52325439453125 404.267578125 C 10.1141357421875 416.5201416015625 13.443115234375 428.7874755859375 17.41790771484375 440.7288208007813 C 21.32110595703125 452.4551391601563 25.9432373046875 464.1569213867188 31.1561279296875 475.5091552734375 C 36.281005859375 486.6697998046875 42.101806640625 497.7649230957031 48.4566650390625 508.4862670898438 C 60.90777587890625 529.4923706054688 75.7664794921875 549.69677734375 92.6201171875 568.5384521484375 C 109.0736694335938 586.9329223632813 127.5900268554688 604.2120361328125 147.6549072265625 619.8956909179688 C 167.4129028320313 635.339599609375 188.82666015625 649.3588256835938 211.3014526367188 661.5640258789063 C 233.6524658203125 673.7020263671875 257.2017822265625 684.1275024414063 281.2951049804688 692.5505981445313 C 305.5060119628906 701.0148315429688 330.4280090332031 707.5132446289063 355.3688049316406 711.8653564453125 C 380.6817932128906 716.2823486328125 406.2133483886719 718.5220336914063 431.2543640136719 718.5220336914063 C 456.2004699707031 718.5220336914063 481.4845886230469 716.074462890625 506.4043579101563 711.2474975585938 C 530.7794799804688 706.5260620117188 555.0043334960938 699.491455078125 578.4063720703125 690.33935546875 C 601.5183715820313 681.3005981445313 623.9705810546875 670.1419067382813 645.1392211914063 657.1731567382813 C 666.271484375 644.226806640625 686.23681640625 629.4078979492188 704.4807739257813 613.1283569335938 C 722.8931274414063 596.6987915039063 739.658447265625 578.68505859375 754.3113403320313 559.5875854492188 C 769.2489013671875 540.1192626953125 782.1026000976563 519.3759155273438 792.5154418945313 497.9338989257813 C 797.814697265625 487.0219116210938 802.5527954101563 475.7717895507813 806.59814453125 464.4962768554688 C 810.7080078125 453.0410461425781 814.2021484375 441.282470703125 816.9834594726563 429.5470275878906 C 819.8134765625 417.606689453125 821.9750366210938 405.3969116210938 823.4081420898438 393.2571411132813 C 824.8681030273438 380.8895874023438 825.6083374023438 368.2860412597656 825.6083374023438 355.7964782714844 C 825.6083374023438 343.3865966796875 824.4202270507813 330.8328247070313 822.076904296875 318.4840393066406 C 819.7979125976563 306.474365234375 816.3694458007813 294.3575744628906 811.8866577148438 282.4701538085938 C 807.5259399414063 270.9060363769531 802.0603637695313 259.2746887207031 795.6417846679688 247.8990478515625 C 789.3953857421875 236.8282470703125 782.0961303710938 225.7332458496094 773.947021484375 214.9222412109375 C 758.2373657226563 194.0812377929688 738.9578857421875 173.7105712890625 716.6441650390625 154.3762817382813 C 695.3609008789063 135.9346923828125 671.215576171875 118.3409423828125 644.8790283203125 102.08349609375 C 619.527099609375 86.43389892578125 592.172607421875 72.03448486328125 563.5753173828125 59.284912109375 C 535.672607421875 46.84503173828125 506.7680358886719 36.05328369140625 477.6645812988281 27.209228515625 C 419.3011169433594 9.47369384765625 361.9355773925781 0.0992431640625 311.7695617675781 0.0992431640625 M 311.7695617675781 -0.9007568359375 C 515.0103759765625 -0.9007568359375 826.6083374023438 152.5557250976563 826.6083374023438 355.7964782714844 C 826.6083374023438 559.0372314453125 634.4951171875 719.5220336914063 431.2543640136719 719.5220336914063 C 228.0135498046875 719.5220336914063 20.08648681640625 573.6803588867188 0.7578125 366.3392639160156 C -18.57086181640625 158.998046875 108.5286865234375 -0.9007568359375 311.7695617675781 -0.9007568359375 Z" stroke="none" fill="#303030"/>
  </g>
</svg>
