<svg xmlns="http://www.w3.org/2000/svg" width="26" height="23.001" viewBox="0 0 26 23.001">
  <g id="XMLID_496_" transform="translate(0)">
    <path id="XMLID_497_" d="M.459,30.429,6.45,32.7l2.319,7.577a.7.7,0,0,0,1.12.343l3.339-2.766a.984.984,0,0,1,1.214-.034l6.023,4.443a.7.7,0,0,0,1.106-.434l4.412-21.565a.71.71,0,0,0-.946-.815L.452,29.087A.722.722,0,0,0,.459,30.429ZM8.4,31.492,20.1,24.165a.206.206,0,0,1,.246.328l-9.663,9.126a2.046,2.046,0,0,0-.621,1.218l-.329,2.478a.3.3,0,0,1-.591.043L7.88,32.839A1.207,1.207,0,0,1,8.4,31.492Z" transform="translate(0 -19.401)" fill="#303030"/>
  </g>
</svg>
